{
	"asset":{
		"generator":"Khronos glTF Blender I/O v5.2.39",
		"version":"2.0"
	},
	"scene":0,
	"scenes":[
		{
			"name":"Scene",
			"nodes":[
				0
			]
		}
	],
	"nodes":[
		{
			"mesh":0,
			"name":"Plane",
			"scale":[
				200,
				1,
				200
			]
		}
	],
	"meshes":[
		{
			"name":"Plane",
			"primitives":[
				{
					"attributes":{
						"POSITION":0,
						"NORMAL":1,
						"TEXCOORD_0":2,
						"TANGENT":3,
						"COLOR_0":4
					},
					"indices":5
				}
			]
		}
	],
	"accessors":[
		{
			"bufferView":0,
			"componentType":5126,
			"count":40432,
			"max":[
				1,
				0,
				1
			],
			"min":[
				-1,
				0,
				-1
			],
			"type":"VEC3"
		},
		{
			"bufferView":1,
			"componentType":5126,
			"count":40432,
			"type":"VEC3"
		},
		{
			"bufferView":2,
			"componentType":5126,
			"count":40432,
			"type":"VEC2"
		},
		{
			"bufferView":3,
			"componentType":5126,
			"count":40432,
			"type":"VEC4"
		},
		{
			"bufferView":4,
			"componentType":5123,
			"count":40432,
			"normalized":true,
			"type":"VEC4"
		},
		{
			"bufferView":5,
			"componentType":5123,
			"count":240000,
			"type":"SCALAR"
		}
	],
	"bufferViews":[
		{
			"buffer":0,
			"byteLength":485184,
			"byteOffset":0,
			"target":34962
		},
		{
			"buffer":0,
			"byteLength":485184,
			"byteOffset":485184,
			"target":34962
		},
		{
			"buffer":0,
			"byteLength":323456,
			"byteOffset":970368,
			"target":34962
		},
		{
			"buffer":0,
			"byteLength":646912,
			"byteOffset":1293824,
			"target":34962
		},
		{
			"buffer":0,
			"byteLength":323456,
			"byteOffset":1940736,
			"target":34962
		},
		{
			"buffer":0,
			"byteLength":480000,
			"byteOffset":2264192,
			"target":34963
		}
	],
	"buffers":[
		{
			"byteLength":2744192,
			"uri":"map.bin"
		}
	]
}
