{
	"asset":{
		"generator":"Khronos glTF Blender I/O v5.1.20",
		"version":"2.0"
	},
	"scene":0,
	"scenes":[
		{
			"name":"Scene",
			"nodes":[
				0
			]
		}
	],
	"nodes":[
		{
			"mesh":0,
			"name":"MapPlane",
			"scale":[
				160,
				1,
				95
			]
		}
	],
	"meshes":[
		{
			"name":"Plane",
			"primitives":[
				{
					"attributes":{
						"POSITION":0,
						"NORMAL":1,
						"TEXCOORD_0":2,
						"TANGENT":3,
						"COLOR_0":4
					},
					"indices":5
				}
			]
		}
	],
	"accessors":[
		{
			"bufferView":0,
			"componentType":5126,
			"count":9933,
			"max":[
				1.0000001192092896,
				0,
				1.0000001192092896
			],
			"min":[
				-1.0000001192092896,
				0,
				-1.0000001192092896
			],
			"type":"VEC3"
		},
		{
			"bufferView":1,
			"componentType":5126,
			"count":9933,
			"type":"VEC3"
		},
		{
			"bufferView":2,
			"componentType":5126,
			"count":9933,
			"type":"VEC2"
		},
		{
			"bufferView":3,
			"componentType":5126,
			"count":9933,
			"type":"VEC4"
		},
		{
			"bufferView":4,
			"componentType":5123,
			"count":9933,
			"normalized":true,
			"type":"VEC4"
		},
		{
			"bufferView":5,
			"componentType":5123,
			"count":58368,
			"type":"SCALAR"
		}
	],
	"bufferViews":[
		{
			"buffer":0,
			"byteLength":119196,
			"byteOffset":0,
			"target":34962
		},
		{
			"buffer":0,
			"byteLength":119196,
			"byteOffset":119196,
			"target":34962
		},
		{
			"buffer":0,
			"byteLength":79464,
			"byteOffset":238392,
			"target":34962
		},
		{
			"buffer":0,
			"byteLength":158928,
			"byteOffset":317856,
			"target":34962
		},
		{
			"buffer":0,
			"byteLength":79464,
			"byteOffset":476784,
			"target":34962
		},
		{
			"buffer":0,
			"byteLength":116736,
			"byteOffset":556248,
			"target":34963
		}
	],
	"buffers":[
		{
			"byteLength":672984,
			"uri":"map.bin"
		}
	]
}
