{
	"asset":{
		"generator":"Khronos glTF Blender I/O v5.1.20",
		"version":"2.0"
	},
	"scene":0,
	"scenes":[
		{
			"name":"Scene",
			"nodes":[
				0,
				1,
				2
			]
		}
	],
	"nodes":[
		{
			"mesh":0,
			"name":"Tree_Branches_02"
		},
		{
			"mesh":1,
			"name":"Tree_Trunk_02"
		},
		{
			"mesh":2,
			"name":"Tree02_Collision"
		}
	],
	"materials":[
		{
			"alphaMode":"BLEND",
			"doubleSided":true,
			"name":"Tree_Branches_02",
			"normalTexture":{
				"index":0
			},
			"pbrMetallicRoughness":{
				"baseColorTexture":{
					"index":1
				},
				"metallicFactor":0,
				"metallicRoughnessTexture":{
					"index":2
				}
			}
		},
		{
			"doubleSided":true,
			"name":"Tree_Trunk_02",
			"normalTexture":{
				"index":3
			},
			"pbrMetallicRoughness":{
				"baseColorTexture":{
					"index":4
				},
				"metallicRoughnessTexture":{
					"index":5
				}
			}
		}
	],
	"meshes":[
		{
			"name":"pt5_trees.032",
			"primitives":[
				{
					"attributes":{
						"POSITION":0,
						"NORMAL":1,
						"TEXCOORD_0":2,
						"TANGENT":3
					},
					"indices":4,
					"material":0
				}
			]
		},
		{
			"name":"pt5_trees.005",
			"primitives":[
				{
					"attributes":{
						"POSITION":5,
						"NORMAL":6,
						"TEXCOORD_0":7,
						"TANGENT":8,
						"COLOR_0":9,
						"COLOR_1":10
					},
					"indices":11,
					"material":1
				}
			]
		},
		{
			"name":"Cube",
			"primitives":[
				{
					"attributes":{
						"POSITION":12,
						"NORMAL":13,
						"TEXCOORD_0":14,
						"TANGENT":15
					},
					"indices":16
				}
			]
		}
	],
	"textures":[
		{
			"sampler":0,
			"source":0
		},
		{
			"sampler":0,
			"source":1
		},
		{
			"sampler":0,
			"source":2
		},
		{
			"sampler":0,
			"source":3
		},
		{
			"sampler":0,
			"source":4
		},
		{
			"sampler":0,
			"source":5
		}
	],
	"images":[
		{
			"mimeType":"image/png",
			"name":"Tree_Branches_Normal",
			"uri":"Textures/Tree_Branches_Normal.png"
		},
		{
			"mimeType":"image/png",
			"name":"Tree_Branches_2_Diffuse-Tree_Branches_2_Opacity",
			"uri":"Textures/Tree_Branches_2_Diffuse-Tree_Branches_2_Opacity.png"
		},
		{
			"mimeType":"image/png",
			"name":"Tree_Branches_Roughness",
			"uri":"Textures/Tree_Branches_Roughness.png"
		},
		{
			"mimeType":"image/png",
			"name":"Tree_Trunk_02_Normal",
			"uri":"Textures/Tree_Trunk_02_Normal.png"
		},
		{
			"mimeType":"image/png",
			"name":"Tree_Trunk_02_Diffuse",
			"uri":"Textures/Tree_Trunk_02_Diffuse.png"
		},
		{
			"mimeType":"image/png",
			"name":"Tree_Trunk_02_Roughness",
			"uri":"Textures/Tree_Trunk_02_Roughness.png"
		}
	],
	"accessors":[
		{
			"bufferView":0,
			"componentType":5126,
			"count":468,
			"max":[
				3.3407106399536133,
				8.803675651550293,
				4.113380432128906
			],
			"min":[
				-3.2746877670288086,
				-0.7439107894897461,
				-3.5486526489257812
			],
			"type":"VEC3"
		},
		{
			"bufferView":1,
			"componentType":5126,
			"count":468,
			"type":"VEC3"
		},
		{
			"bufferView":2,
			"componentType":5126,
			"count":468,
			"type":"VEC2"
		},
		{
			"bufferView":3,
			"componentType":5126,
			"count":468,
			"type":"VEC4"
		},
		{
			"bufferView":4,
			"componentType":5123,
			"count":468,
			"type":"SCALAR"
		},
		{
			"bufferView":5,
			"componentType":5126,
			"count":345,
			"max":[
				0.5121995806694031,
				5.862916946411133,
				1.279937744140625
			],
			"min":[
				-0.7293623089790344,
				-3.907804250717163,
				-1.60406494140625
			],
			"type":"VEC3"
		},
		{
			"bufferView":6,
			"componentType":5126,
			"count":345,
			"type":"VEC3"
		},
		{
			"bufferView":7,
			"componentType":5126,
			"count":345,
			"type":"VEC2"
		},
		{
			"bufferView":8,
			"componentType":5126,
			"count":345,
			"type":"VEC4"
		},
		{
			"bufferView":9,
			"componentType":5121,
			"count":345,
			"normalized":true,
			"type":"VEC4"
		},
		{
			"bufferView":10,
			"componentType":5123,
			"count":345,
			"normalized":true,
			"type":"VEC4"
		},
		{
			"bufferView":11,
			"componentType":5123,
			"count":387,
			"type":"SCALAR"
		},
		{
			"bufferView":12,
			"componentType":5126,
			"count":24,
			"max":[
				0.5395121574401855,
				7.493427276611328,
				0.5462415218353271
			],
			"min":[
				-0.5395121574401855,
				-4.009148597717285,
				-0.5462415218353271
			],
			"type":"VEC3"
		},
		{
			"bufferView":13,
			"componentType":5126,
			"count":24,
			"type":"VEC3"
		},
		{
			"bufferView":14,
			"componentType":5126,
			"count":24,
			"type":"VEC2"
		},
		{
			"bufferView":15,
			"componentType":5126,
			"count":24,
			"type":"VEC4"
		},
		{
			"bufferView":16,
			"componentType":5123,
			"count":36,
			"type":"SCALAR"
		}
	],
	"bufferViews":[
		{
			"buffer":0,
			"byteLength":5616,
			"byteOffset":0,
			"target":34962
		},
		{
			"buffer":0,
			"byteLength":5616,
			"byteOffset":5616,
			"target":34962
		},
		{
			"buffer":0,
			"byteLength":3744,
			"byteOffset":11232,
			"target":34962
		},
		{
			"buffer":0,
			"byteLength":7488,
			"byteOffset":14976,
			"target":34962
		},
		{
			"buffer":0,
			"byteLength":936,
			"byteOffset":22464,
			"target":34963
		},
		{
			"buffer":0,
			"byteLength":4140,
			"byteOffset":23400,
			"target":34962
		},
		{
			"buffer":0,
			"byteLength":4140,
			"byteOffset":27540,
			"target":34962
		},
		{
			"buffer":0,
			"byteLength":2760,
			"byteOffset":31680,
			"target":34962
		},
		{
			"buffer":0,
			"byteLength":5520,
			"byteOffset":34440,
			"target":34962
		},
		{
			"buffer":0,
			"byteLength":1380,
			"byteOffset":39960,
			"target":34962
		},
		{
			"buffer":0,
			"byteLength":2760,
			"byteOffset":41340,
			"target":34962
		},
		{
			"buffer":0,
			"byteLength":774,
			"byteOffset":44100,
			"target":34963
		},
		{
			"buffer":0,
			"byteLength":288,
			"byteOffset":44876,
			"target":34962
		},
		{
			"buffer":0,
			"byteLength":288,
			"byteOffset":45164,
			"target":34962
		},
		{
			"buffer":0,
			"byteLength":192,
			"byteOffset":45452,
			"target":34962
		},
		{
			"buffer":0,
			"byteLength":384,
			"byteOffset":45644,
			"target":34962
		},
		{
			"buffer":0,
			"byteLength":72,
			"byteOffset":46028,
			"target":34963
		}
	],
	"samplers":[
		{
			"magFilter":9729,
			"minFilter":9987
		}
	],
	"buffers":[
		{
			"byteLength":46100,
			"uri":"Tree01.bin"
		}
	]
}
